Coordinates
version=1
nRows=13
nColumns=34
inDegrees=yes

Units are S.I. units (second, meters, Newtons, ...)
If the header above contains a line with 'inDegrees', this indicates whether rotational values are in degrees (yes) or radians (no).

endheader
time	pelvis_tilt	pelvis_list	pelvis_rotation	pelvis_tx	pelvis_ty	pelvis_tz	hip_flexion_r	hip_adduction_r	hip_rotation_r	knee_angle_r	ankle_angle_r	subtalar_angle_r	mtp_angle_r	hip_flexion_l	hip_adduction_l	hip_rotation_l	knee_angle_l	ankle_angle_l	subtalar_angle_l	mtp_angle_l	lumbar_extension	lumbar_bending	lumbar_rotation	arm_flex_r	arm_add_r	arm_rot_r	elbow_flex_r	pro_sup_r	arm_flex_l	arm_add_l	arm_rot_l	elbow_flex_l	pro_sup_l
      0.00000000	      4.59535745	     -0.59869679	      3.10164389	     -0.65039892	      0.91298564	      0.00953360	     -9.87129205	      2.70827269	    -10.01190958	      2.21666494	      0.97093206	    -15.18456614	      0.00000000	     -9.28744513	      0.40987935	     -9.03351985	      0.00000000	     13.59710447	      0.47601560	      0.00000000	     -4.34690501	      2.54462297	     -4.98293418	      4.78076760	     -4.30859203	     16.76440615	     21.42314791	     81.02238898	      0.52319577	     -4.82067848	      4.83458538	     28.77923598	     79.51634215
      0.01666670	      2.98020337	      0.24141866	      3.20537659	     -0.64854909	      0.91157578	      0.00821765	     -7.88335671	      1.98471860	    -11.24146600	      2.30194117	      4.89327295	    -11.34409211	      0.00000000	     -7.33376925	      2.06665391	    -12.32861284	      0.00000000	     15.04822868	      4.64700134	      0.00000000	     -1.52644154	      1.60716189	     -4.39643806	      3.09924722	     -4.00484921	     12.42463877	     22.70187187	     80.62821431	      0.94897492	     -4.07550094	      2.21701641	     27.15329634	     79.29272758
      0.03333330	      2.00507714	      1.43942407	      2.97959078	     -0.64782709	      0.91079029	      0.00919706	     -7.30281757	      0.82306277	    -12.28059653	      1.21563258	      5.86009660	     -9.13120799	      0.00000000	     -6.40987526	      3.51170156	    -14.49544388	      0.00000000	     15.18233637	      7.21841128	      0.00000000	      0.18010095	      0.00553457	     -4.05091992	      2.45052674	     -3.34098092	     10.01535827	     23.05633355	     80.75582303	      0.71161005	     -4.60529493	      2.84435289	     26.81888779	     79.35470299
      0.05000000	      2.29304623	      2.01968619	      3.26293742	     -0.64840374	      0.91255939	      0.00930596	     -8.05891046	      0.36734724	    -13.21424543	      0.36639402	      6.11369349	     -7.63497406	      0.00000000	     -6.83960644	      4.10914483	    -15.40716395	      0.00000000	     15.21549104	      8.68361302	      0.00000000	      0.01200216	     -0.77081757	     -4.09542924	      2.18574734	     -3.11155285	      9.53308859	     23.42735268	     80.88232570	      0.83525799	     -5.06013211	      3.73244043	     26.49056077	     79.34513947
      0.06666670	      2.22795387	      2.22032396	      3.32467577	     -0.64858681	      0.91259638	      0.00950795	     -8.17197564	      0.24567407	    -13.15593024	      0.00000000	      6.16049900	     -7.49819422	      0.00000000	     -6.80274777	      4.35815948	    -15.52252650	      0.00000000	     15.00543483	      8.76171620	      0.00000000	      0.06140052	     -0.89967822	     -4.00839966	      2.25494908	     -3.00009773	      9.56538190	     23.50164321	     80.89340791	      0.91756552	     -5.11721752	      3.78206647	     26.49058088	     79.33686292
      0.08333330	      2.81748269	      2.42826108	      3.33183140	     -0.64800715	      0.91285910	      0.00995576	     -8.89342948	      0.11976377	    -13.68878965	      0.00000000	      6.79333645	     -5.93326438	      0.00000000	     -7.46401359	      4.53338823	    -16.51143433	      0.00000000	     14.84008188	     10.11268705	      0.00000000	     -0.67424601	     -1.30291209	     -3.29089975	      2.01593844	     -3.11634313	     10.38712327	     23.90429183	     81.00673449	      1.70643051	     -5.22475112	      4.84482095	     25.99765757	     79.13754237
      0.10000000	      2.79874357	      2.45724582	      3.43863294	     -0.64757959	      0.91228632	      0.01000313	     -8.95805875	      0.11991520	    -13.67565727	      0.00000000	      6.77246144	     -5.91360262	      0.00000000	     -7.46042758	      4.54848993	    -16.52693946	      0.00000000	     14.80173035	     10.12630129	      0.00000000	     -0.63500260	     -1.29799422	     -3.27318329	      2.07340390	     -3.07566909	     10.40515072	     23.93397181	     81.00752228	      1.75760943	     -5.22982300	      4.85496618	     26.00497297	     79.13235259
      0.11666670	      3.38487271	      2.55944380	      3.62281118	     -0.64798654	      0.91262781	      0.00996890	     -9.66172970	      0.09841150	    -14.01844824	      0.00000000	      6.75045909	     -5.56050420	      0.00000000	     -8.08472633	      4.57106984	    -16.63987700	      0.00000000	     14.53771696	     10.76517859	      0.00000000	     -1.44034168	     -1.46409517	     -3.26540312	      2.26589876	     -3.18884727	     11.81536795	     24.12971669	     81.01842867	      2.63175101	     -5.32348609	      5.74731575	     25.23211201	     78.66381642
      0.13333330	      3.36123338	      2.56189739	      3.63031821	     -0.64781982	      0.91232751	      0.00997040	     -9.67656856	      0.10127217	    -14.01635053	      0.00000000	      6.74930467	     -5.55966995	      0.00000000	     -8.09433602	      4.56415410	    -16.64223277	      0.00000000	     14.53390727	     10.76540337	      0.00000000	     -1.43973544	     -1.46750441	     -3.26617485	      2.26647996	     -3.18673987	     11.81728447	     24.13005208	     81.01838564	      2.63659906	     -5.32256035	      5.74813569	     25.23341625	     78.66313627
      0.15000000	      3.39937858	      2.52308960	      3.84458340	     -0.64780129	      0.91272227	      0.00988861	     -9.78002172	      0.19793288	    -13.94644568	      0.00000000	      6.72251604	     -5.54053975	      0.00000000	     -8.16020316	      4.45206308	    -16.65264855	      0.00000000	     14.39079779	     10.82556157	      0.00000000	     -1.39083740	     -1.57800984	     -3.34353891	      2.19592261	     -3.12480390	     11.88277411	     24.11725623	     81.02132359	      2.80679741	     -5.32935440	      5.76380030	     25.26643768	     78.64503470
      0.16666670	      3.64286786	      2.55000889	      4.04048357	     -0.64805210	      0.91385351	      0.00972688	    -10.08854339	      0.24858730	    -14.17376859	      0.00000000	      6.68965088	     -5.75959679	      0.00000000	     -8.44186082	      4.39506206	    -16.47898886	      0.00000000	     13.89360613	     11.24356912	      0.00000000	     -1.80309093	     -1.63522811	     -3.47463848	      2.25041036	     -3.13001853	     12.29707117	     24.11812358	     81.04442066	      3.12183060	     -5.38327598	      5.92364869	     25.06647439	     78.52505837
      0.18333330	      3.63719586	      2.55869269	      4.05057914	     -0.64820526	      0.91470454	      0.00975217	    -10.08022371	      0.24384770	    -14.16616246	      0.00000000	      6.68747561	     -5.75624991	      0.00000000	     -8.45897532	      4.37517587	    -16.48189736	      0.00000000	     13.89602173	     11.24300784	      0.00000000	     -1.80779553	     -1.63870401	     -3.48118699	      2.24535576	     -3.13300151	     12.30125083	     24.11606965	     81.04466546	      3.12781263	     -5.38729476	      5.92498072	     25.06448131	     78.52381767
      0.20000000	      3.66574831	      2.53300061	      4.16034477	     -0.64846447	      0.91544329	      0.00978609	    -10.09930951	      0.30330762	    -14.05090778	      0.00000000	      6.65481848	     -5.70091425	      0.00000000	     -8.46411433	      4.30055817	    -16.48977322	      0.00000000	     13.86235792	     11.27646273	      0.00000000	     -1.93248017	     -1.72233420	     -3.59761769	      2.17184017	     -3.18169577	     12.35644149	     24.08311430	     81.04946030	      3.23629950	     -5.45750717	      5.94140614	     25.02984037	     78.50908064
